<svg class="svg-icon" style="width: 1em; height: 1em;vertical-align: middle;fill: currentColor;overflow: hidden;" viewBox="0 0 1024 1024" version="1.1" xmlns="http://www.w3.org/2000/svg"><path d="M865.664 910.208m-110.656 0a1.729 1.729 0 1 0 221.312 0 1.729 1.729 0 1 0-221.312 0Z"  /><path d="M404.736 910.208m-110.656 0a1.729 1.729 0 1 0 221.312 0 1.729 1.729 0 1 0-221.312 0Z"  /><path d="M448.448 505.536C430.4 507.584 417.408 523.84 419.392 541.952 421.376 560 437.696 572.992 455.744 571.008l486.4-54.208c14.208-1.6 25.728-12.096 28.608-26.112l52.544-256.32c4.16-20.416-11.392-39.552-32.256-39.552L189.952 194.816 130.56 25.216C125.888 12.032 113.472 3.2 99.456 3.2l-66.56 0C14.72 3.2 0 17.92 0 36.096c0 18.176 14.72 32.896 32.896 32.896l43.2 0 222.912 636.416c4.608 13.184 17.088 22.016 31.104 22.016l618.816 0c18.176 0 32.896-14.72 32.896-32.896 0-18.176-14.72-32.896-32.896-32.896L353.472 661.632 212.992 260.672c140.544-0.384 739.392-1.792 739.008 0.064-17.088 83.328-40.512 191.68-40.512 191.68L448.448 505.536z"  /></svg>